<svg width="100" height="100" viewBox="0 0 100 100" fill="none" xmlns="http://www.w3.org/2000/svg">
<g clip-path="url(#clip0_115_15)">
<path d="M80.793 48.0664H75.3906C75.287 48.0664 75.1877 48.0253 75.1144 47.952C75.0412 47.8787 75 47.7794 75 47.6758V32.5898C75 30.5769 74.2004 28.6464 72.777 27.223C71.3536 25.7996 69.4231 25 67.4102 25H52.3242C52.2206 25 52.1213 24.9588 52.048 24.8856C51.9747 24.8123 51.9336 24.713 51.9336 24.6094V19.207C51.9336 13.9062 47.7344 9.46875 42.4336 9.37695C41.1493 9.35439 39.8734 9.58782 38.6803 10.0636C37.4872 10.5394 36.4008 11.2481 35.4844 12.1482C34.5681 13.0483 33.8402 14.1219 33.3433 15.3064C32.8463 16.4908 32.5902 17.7624 32.5898 19.0469V24.6094C32.5898 24.713 32.5487 24.8123 32.4754 24.8856C32.4022 24.9588 32.3028 25 32.1992 25H17.1133C15.0629 25.0062 13.0982 25.8234 11.6483 27.2733C10.1984 28.7232 9.38118 30.6879 9.375 32.7383V46.4844C9.375 46.588 9.41615 46.6873 9.48941 46.7606C9.56267 46.8338 9.66202 46.875 9.76562 46.875H15.0215C20.7578 46.875 25.5059 51.8516 25.5859 57.5879C25.668 63.4219 20.9941 68.75 15.1777 68.75H9.76562C9.66202 68.75 9.56267 68.7912 9.48941 68.8644C9.41615 68.9377 9.375 69.037 9.375 69.1406V82.8867C9.38118 84.9371 10.1984 86.9018 11.6483 88.3517C13.0982 89.8015 15.0629 90.6188 17.1133 90.625H30.8594C30.963 90.625 31.0623 90.5838 31.1356 90.5106C31.2088 90.4373 31.25 90.338 31.25 90.2344V86.1465C31.25 80.2324 36.084 75.1406 41.9922 75.002C47.8711 74.8652 53.125 78.9688 53.125 84.8223V90.2344C53.125 90.338 53.1662 90.4373 53.2394 90.5106C53.3127 90.5838 53.412 90.625 53.5156 90.625H67.4102C69.4231 90.625 71.3536 89.8254 72.777 88.402C74.2004 86.9786 75 85.0481 75 83.0352V67.8008C75 67.6972 75.0412 67.5978 75.1144 67.5246C75.1877 67.4513 75.287 67.4102 75.3906 67.4102H80.9531C86.3496 67.4102 90.625 62.9824 90.625 57.5664C90.625 52.1504 86.0938 48.0664 80.793 48.0664Z" stroke="#F1426C" stroke-width="4" stroke-linecap="round" stroke-linejoin="round"/>
</g>
<defs>
<clipPath id="clip0_115_15">
<rect width="100" height="100" fill="white"/>
</clipPath>
</defs>
</svg>
