<svg width="100" height="100" viewBox="0 0 100 100" fill="none" xmlns="http://www.w3.org/2000/svg">
<g clip-path="url(#clip0_115_10)">
<path d="M50 59.375C62.9442 59.375 73.4375 48.8817 73.4375 35.9375C73.4375 22.9933 62.9442 12.5 50 12.5C37.0558 12.5 26.5625 22.9933 26.5625 35.9375C26.5625 48.8817 37.0558 59.375 50 59.375Z" stroke="#F1426C" stroke-width="4" stroke-linejoin="round"/>
<path d="M67.1875 87.5C80.1317 87.5 90.625 77.0067 90.625 64.0625C90.625 51.1183 80.1317 40.625 67.1875 40.625C54.2433 40.625 43.75 51.1183 43.75 64.0625C43.75 77.0067 54.2433 87.5 67.1875 87.5Z" stroke="#F1426C" stroke-width="4" stroke-linejoin="round"/>
<path d="M32.8125 87.5C45.7567 87.5 56.25 77.0067 56.25 64.0625C56.25 51.1183 45.7567 40.625 32.8125 40.625C19.8683 40.625 9.375 51.1183 9.375 64.0625C9.375 77.0067 19.8683 87.5 32.8125 87.5Z" stroke="#F1426C" stroke-width="4" stroke-linejoin="round"/>
</g>
<defs>
<clipPath id="clip0_115_10">
<rect width="100" height="100" fill="white"/>
</clipPath>
</defs>
</svg>
