<svg width="100" height="100" viewBox="0 0 100 100" fill="none" xmlns="http://www.w3.org/2000/svg">
<g clip-path="url(#clip0_115_18)">
<path d="M39.0625 48.2109C40.7832 59.6602 37.6309 65.9199 28.7285 67.2363C18.8359 68.6992 14.7598 62.0723 13.0391 50.6231C10.7246 35.2168 16.1641 25.6348 23.9199 25.0176C30.9785 24.457 37.3398 36.7637 39.0625 48.2109ZM43.6816 79.9863C44.293 86.4863 40.7793 92.5527 35.4785 93.5918C30.1269 94.6387 24.0117 90.3945 22.7656 83.9844C21.5195 77.5742 26.2324 77.2344 32.0078 76.1309C37.7832 75.0273 42.9434 72.1465 43.6816 79.9863ZM60.9375 29.459C59.2168 40.9082 62.3691 47.168 71.2695 48.4844C81.1641 49.9473 85.2383 43.3203 86.959 31.8711C89.2754 16.4629 83.834 6.82813 76.0801 6.26563C68.9707 5.75001 62.6602 18.0098 60.9375 29.459ZM56.3184 61.2363C55.707 67.7344 59.2207 73.8027 64.5215 74.8418C69.873 75.8887 75.9883 71.6445 77.2344 65.2344C78.4805 58.8242 73.7676 58.4844 67.9922 57.3789C62.2168 56.2734 57.0566 53.3945 56.3184 61.2363Z" stroke="#F1426C" stroke-width="4" stroke-miterlimit="10"/>
</g>
<defs>
<clipPath id="clip0_115_18">
<rect width="100" height="100" fill="white"/>
</clipPath>
</defs>
</svg>
