<svg width="100" height="100" viewBox="0 0 100 100" fill="none" xmlns="http://www.w3.org/2000/svg">
<g clip-path="url(#clip0_112_3)">
<path d="M59.375 75V70.3125C59.375 64.6484 65.5351 59.291 69.5312 55.4687C75.1641 50.084 78.125 42.8496 78.125 34.375C78.125 18.75 65.6777 6.24999 50 6.24999C46.3037 6.23968 42.6418 6.96011 39.2248 8.36987C35.8079 9.77964 32.7033 11.8509 30.0896 14.4646C27.4759 17.0783 25.4046 20.1829 23.9949 23.5998C22.5851 27.0168 21.8647 30.6787 21.875 34.375C21.875 42.5469 24.9629 50.2715 30.4687 55.4687C34.4433 59.2207 40.625 64.5898 40.625 70.3125V75M43.75 93.75H56.25M40.625 84.375H59.375M50 75V50" stroke="#F1426C" stroke-width="4" stroke-linecap="round" stroke-linejoin="round"/>
<path d="M57.4219 46.875C57.4219 46.875 53.2207 50 50 50C46.7793 50 42.5781 46.875 42.5781 46.875" stroke="#F1426C" stroke-width="4" stroke-linecap="round" stroke-linejoin="round"/>
</g>
<defs>
<clipPath id="clip0_112_3">
<rect width="100" height="100" fill="white"/>
</clipPath>
</defs>
</svg>
