<svg width="100" height="100" viewBox="0 0 100 100" fill="none" xmlns="http://www.w3.org/2000/svg">
<g clip-path="url(#clip0_115_7)">
<path d="M81.8555 65.9082C81.7833 65.8199 81.6924 65.7488 81.5894 65.7C81.4864 65.6512 81.3738 65.6258 81.2598 65.6258C81.1458 65.6258 81.0332 65.6512 80.9302 65.7C80.8271 65.7488 80.7362 65.8199 80.6641 65.9082C78.6133 68.3301 71.875 75 71.875 81.0762C71.875 86.3496 76.0742 90.625 81.25 90.625C86.4258 90.625 90.625 86.3281 90.625 81.0762C90.625 75 83.9258 68.3301 81.8555 65.9082ZM75.5859 56.2305L30.3926 11.3984C29.7394 10.7429 28.9632 10.2228 28.1085 9.86794C27.2538 9.51306 26.3375 9.33038 25.4121 9.33038C24.4867 9.33038 23.5704 9.51306 22.7157 9.86794C21.8611 10.2228 21.0849 10.7429 20.4317 11.3984L19.4258 12.4043C18.7703 13.0575 18.2502 13.8337 17.8953 14.6884C17.5404 15.543 17.3577 16.4593 17.3577 17.3848C17.3577 18.3102 17.5404 19.2265 17.8953 20.0811C18.2502 20.9358 18.7703 21.712 19.4258 22.3652L29.7559 32.6953L40.8887 21.5625L11.002 51.4062C10.4861 51.9193 10.0778 52.5302 9.80093 53.203C9.5241 53.8759 9.38431 54.5972 9.38977 55.3248C9.39523 56.0524 9.54581 56.7715 9.83271 57.4402C10.1196 58.1088 10.537 58.7135 11.0606 59.2187L36.6856 83.8281C37.7088 84.8078 39.0717 85.353 40.4883 85.3493C41.9049 85.3457 43.265 84.7935 44.2832 83.8086C51.666 76.6601 67.3887 61.4453 69.0293 59.8047C70.1621 58.6719 72.584 58.418 74.6348 58.418H74.6934C74.947 58.4182 75.1949 58.3428 75.4054 58.2015C75.6159 58.0601 75.7796 57.8592 75.8754 57.6244C75.9712 57.3896 75.9948 57.1316 75.9433 56.8833C75.8917 56.635 75.7673 56.4077 75.5859 56.2305Z" stroke="#F1426C" stroke-width="4" stroke-miterlimit="10"/>
</g>
<defs>
<clipPath id="clip0_115_7">
<rect width="100" height="100" fill="white"/>
</clipPath>
</defs>
</svg>
