<svg width="100" height="100" viewBox="0 0 100 100" fill="none" xmlns="http://www.w3.org/2000/svg">
<g clip-path="url(#clip0_115_21)">
<path d="M90.1973 10.5098C90.164 10.3495 90.0857 10.202 89.9716 10.0847C89.8574 9.96741 89.7121 9.88517 89.5527 9.84765C78.9316 7.24999 54.3965 16.5059 41.0898 29.8027C38.7183 32.1548 36.5559 34.7087 34.6269 37.4355C30.5254 37.0644 26.4238 37.3769 22.9316 38.9004C13.0703 43.2363 10.2012 54.5605 9.40039 59.4219C9.357 59.6882 9.37553 59.961 9.45455 60.2191C9.53356 60.4771 9.67093 60.7135 9.85602 60.91C10.0411 61.1064 10.2689 61.2575 10.5219 61.3517C10.7748 61.4459 11.046 61.4806 11.3145 61.4531L27.1484 59.7148C27.1594 60.9091 27.2311 62.1021 27.3633 63.2891C27.4459 64.1095 27.812 64.8754 28.3984 65.4551L34.5293 71.5859C35.1094 72.1728 35.8761 72.5389 36.6973 72.6211C37.8771 72.7527 39.0629 72.8244 40.25 72.8359L38.5137 88.6562C38.4866 88.9244 38.5215 89.1952 38.6157 89.4476C38.7099 89.7001 38.8609 89.9276 39.0571 90.1124C39.2532 90.2972 39.4893 90.4345 39.7469 90.5135C40.0045 90.5926 40.2769 90.6113 40.543 90.5684C45.4062 89.7871 56.7539 86.918 61.0645 77.0586C62.5879 73.5625 62.9004 69.4824 62.5488 65.4004C65.2837 63.4733 67.8449 61.3107 70.2031 58.9375C83.5586 45.6562 92.7559 21.6602 90.1973 10.5098ZM58.332 41.7324C57.1655 40.5661 56.371 39.0801 56.0491 37.4623C55.7271 35.8445 55.8922 34.1675 56.5233 32.6435C57.1545 31.1195 58.2234 29.8169 59.5949 28.9004C60.9665 27.9839 62.579 27.4947 64.2285 27.4947C65.8781 27.4947 67.4906 27.9839 68.8621 28.9004C70.2336 29.8169 71.3025 31.1195 71.9337 32.6435C72.5649 34.1675 72.7299 35.8445 72.408 37.4623C72.086 39.0801 71.2915 40.5661 70.125 41.7324C69.3513 42.5078 68.4322 43.123 67.4204 43.5427C66.4086 43.9624 65.3239 44.1785 64.2285 44.1785C63.1331 44.1785 62.0485 43.9624 61.0367 43.5427C60.0249 43.123 59.1058 42.5078 58.332 41.7324Z" stroke="#F1426C" stroke-width="4" stroke-linecap="round" stroke-linejoin="round"/>
<path d="M21.4141 68.75C19.467 68.989 17.6556 69.8717 16.2676 71.2578C12.8262 74.7109 12.5 87.5 12.5 87.5C12.5 87.5 25.2969 87.1738 28.7402 83.7285C30.132 82.3426 31.0161 80.5282 31.25 78.5781" stroke="#F1426C" stroke-width="4" stroke-linecap="round" stroke-linejoin="round"/>
</g>
<defs>
<clipPath id="clip0_115_21">
<rect width="100" height="100" fill="white"/>
</clipPath>
</defs>
</svg>
