<svg width="692" height="757" viewBox="0 0 692 757" fill="none" xmlns="http://www.w3.org/2000/svg">
<g clip-path="url(#clip0_82_84)">
<path d="M179.108 325.863C258.577 325.863 323 261.44 323 181.971C323 102.501 258.577 38.0786 179.108 38.0786C99.6386 38.0786 35.2159 102.501 35.2159 181.971C35.2159 261.44 99.6386 325.863 179.108 325.863Z" fill="#FF6884"/>
<path d="M394.08 55.6018L116.931 208.265C84.9151 249.312 693.253 251.85 688.232 208.416L419.482 55.7528C411.833 51.4075 401.802 51.3479 394.08 55.6018Z" fill="#F1426C"/>
<path opacity="0.2" d="M394.08 55.6018L116.931 208.265C84.9151 249.312 693.253 251.85 688.232 208.416L419.482 55.7528C411.833 51.4075 401.802 51.3479 394.08 55.6018Z" fill="black"/>
<path d="M388.597 42.8574H409.403L402.387 3.30957C401.953 0.86621 400.292 0 399 0C397.708 0 396.047 0.86621 395.613 3.30957L388.597 42.8574Z" fill="#3F3D56"/>
<path d="M409.564 173.344H386.624V732.858H409.564V173.344Z" fill="#3F3D56"/>
<path d="M398.16 260.688C388.373 260.688 379.172 256.898 372.217 249.993L314.32 192.512L319.05 187.747L376.946 245.228C382.703 250.944 390.302 254.064 398.454 253.973C406.566 253.896 414.143 250.647 419.792 244.825L475.116 187.792L479.935 192.467L424.611 249.5C417.703 256.621 408.436 260.593 398.517 260.687C398.398 260.688 398.278 260.688 398.16 260.688Z" fill="#3F3D56"/>
<path d="M406.182 216.805C377.693 216.805 348.98 216.707 321.111 216.51C262.065 216.09 211.653 215.261 175.326 214.11C113.407 212.15 112.748 209.923 112.466 208.973C112.401 208.753 112.379 208.326 112.962 207.942L389.351 26.1836C395.996 21.8018 404.549 21.8613 411.137 26.3399L690.567 208.092C691.15 208.487 691.121 208.915 691.053 209.135C690.704 210.252 689.646 213.651 566.955 215.648C520.274 216.408 463.699 216.805 406.182 216.805Z" fill="#F1426C"/>
<path d="M202.232 596.143C192.315 597.663 185.061 604.012 186.03 610.323C186.998 616.634 195.821 620.516 205.741 618.994C209.712 618.441 213.493 616.944 216.767 614.63L288.505 603.822L291.208 579.04L214.063 597.003C210.245 595.776 206.188 595.481 202.232 596.143Z" fill="#FFB6B6"/>
<path d="M382.945 544.472L366.684 578.978L284.939 606.496L288.922 578.451L364.357 542.804L382.945 544.472Z" fill="#E6E6E6"/>
<path d="M232.175 675.49L217.576 712.417L198.684 699.535L209.847 660.891L232.175 675.49Z" fill="#FFB6B6"/>
<path d="M171.203 661.75L132.559 698.676L148.016 714.993L187.52 684.077L171.203 661.75Z" fill="#FFB6B6"/>
<path d="M390.188 541.523L389.758 538.517L379.883 519.195L347.25 527.782L353.261 554.404L390.188 541.523Z" fill="#FFB6B6"/>
<path d="M376.448 670.337L377.451 683.236C377.451 683.236 381.6 737.321 348.108 741.615C314.617 745.909 300.018 750.202 280.266 716.711L249.351 661.75L231.293 683.236L207.271 664.326C207.271 664.326 224.446 597.342 238.187 594.766C239.904 594.444 241.622 594.283 243.312 594.248C254.687 594.011 265.41 599.575 272.216 608.692L311.182 660.891L325.351 654.45L376.448 670.337Z" fill="#2F2E41"/>
<path d="M190.955 710.699L199.632 697.895L219.547 707.349C219.547 707.349 226.164 730.451 218.435 733.027C210.706 735.603 189.237 732.168 189.237 732.168C189.237 732.168 149.734 740.756 148.875 733.027C148.016 725.298 166.909 723.581 166.909 723.581L190.955 710.699Z" fill="#FFB6B6"/>
<path d="M275.113 700.394L215.429 662.788L184.943 690.089L164.333 666.043C164.333 666.043 202.119 610.224 213.282 607.648C224.446 605.071 242.48 603.354 242.48 603.354L297.441 654.021L275.113 700.394Z" fill="#2F2E41"/>
<path d="M136.72 695.38L149.341 713.384L148.847 718.939C148.847 718.939 143.723 741.256 131.7 733.707C119.677 726.157 118.818 724.439 118.818 724.439C118.818 724.439 84.4679 732.168 81.0329 718.428C77.5978 704.688 87.0442 707.264 87.0442 707.264L95.6217 712.417L129.057 701.24L136.72 695.38Z" fill="#FFB6B6"/>
<path d="M357.555 537.229C372.732 537.229 385.035 524.925 385.035 509.748C385.035 494.571 372.732 482.268 357.555 482.268C342.378 482.268 330.074 494.571 330.074 509.748C330.074 524.925 342.378 537.229 357.555 537.229Z" fill="#FFB6B6"/>
<path d="M351.114 548.822L390.617 536.8C390.617 536.8 406.075 572.868 403.499 589.184C400.922 605.501 377.451 683.236 377.451 683.236L325.351 654.45C325.351 654.45 324.492 637.275 321.916 629.546C319.34 621.817 311.182 598.201 329.216 578.45C347.25 558.698 351.114 548.822 351.114 548.822Z" fill="#E6E6E6"/>
<path d="M264.17 729.147C257.741 736.849 256.504 746.409 261.407 750.5C266.309 754.59 275.493 751.662 281.923 743.956C284.534 740.914 286.378 737.29 287.301 733.388L348.158 665.149L329.299 654.955L273.609 721.963C269.934 723.569 266.698 726.032 264.17 729.147Z" fill="#FFB6B6"/>
<path d="M381.415 566.148L390.752 603.132L345.053 676.284L349.177 675.343L324.202 656.994L330.329 652.085L365.992 576.657L381.415 566.148Z" fill="#E6E6E6"/>
<path d="M332.221 505.025C339.269 505.008 339.669 505.055 340.809 505.025C349.55 504.795 351.836 501.356 356.267 501.59C364.175 502.009 353.737 541.657 349.397 559.986C345.139 577.963 359.527 594.071 360.56 595.195C375.164 611.077 400.815 613.982 405.216 607.218C408.779 601.744 396.153 593.42 399.205 581.455C402.188 569.759 415.964 571.005 419.815 559.986C423.848 548.447 410.296 542.627 401.781 514.472C396.891 498.302 397.756 495.289 393.193 485.274C380.997 458.504 321.216 469.902 327.927 494.72C329.226 499.521 325.771 505.041 332.221 505.025Z" fill="#2F2E41"/>
</g>
<defs>
<clipPath id="clip0_82_84">
<rect width="691.088" height="756.357" fill="white"/>
</clipPath>
</defs>
</svg>
