<svg xmlns="http://www.w3.org/2000/svg" width="629" height="775" fill="none"><g clip-path="url(#a)"><path fill="#F1426C" d="M308.748 263.27c0 38.64-13.5 71.63-39.19 96.18-18.23 17.43-46.31 41.86-46.31 67.69v21.37h-85.5v-21.37c0-26.1-28.19-50.58-46.31-67.69-25.11-23.69-39.19-58.92-39.19-96.18v-.79a128.251 128.251 0 0 1 256.5.79Z"/><path fill="#3F3D56" d="M223.247 451.51a2.996 2.996 0 0 1-2.121-.879 2.996 2.996 0 0 1-.879-2.121v-21.374c0-25.125 24.779-48.58 42.873-65.706 1.5-1.422 2.961-2.8 4.363-4.145 25.029-23.928 38.259-56.437 38.259-94.014 0-70.229-55.013-125.243-125.242-125.243h-.354A125.03 125.03 0 0 0 55.257 262.566v.7c0 36.8 13.939 71.063 38.245 94.007 1.231 1.163 2.51 2.36 3.823 3.589 18.327 17.159 43.427 40.658 43.427 66.275v21.373c0 .796-.316 1.559-.879 2.121a2.996 2.996 0 0 1-4.242 0 2.996 2.996 0 0 1-.879-2.121v-21.374c0-23.015-24-45.486-41.528-61.9a1679.76 1679.76 0 0 1-3.841-3.605c-25.5-24.072-40.126-59.924-40.126-98.364v-.72c.2-72.045 58.885-130.523 130.88-130.523h.371a130.555 130.555 0 0 1 131.234 131.247c0 39.255-13.871 73.264-40.112 98.351a1208.608 1208.608 0 0 1-4.386 4.165c-17.3 16.377-41 38.806-41 61.349v21.374c0 .796-.316 1.559-.879 2.121a2.996 2.996 0 0 1-2.121.879h.003Z"/><path fill="#F1426C" d="M208.999 490.005h-57a5.004 5.004 0 0 1-3.536-1.464 5.004 5.004 0 0 1 0-7.072 5.004 5.004 0 0 1 3.536-1.464h57c1.326 0 2.598.527 3.536 1.464a5.004 5.004 0 0 1 0 7.072 5.004 5.004 0 0 1-3.536 1.464Z"/><path fill="#3F3D56" d="M186.628 523.505h-12.267a23.445 23.445 0 0 1-12.094-3.351 2.79 2.79 0 0 1-1.269-3.214 2.89 2.89 0 0 1 2.802-2.142h33.389a2.889 2.889 0 0 1 2.802 2.142 2.8 2.8 0 0 1-.078 1.827 2.786 2.786 0 0 1-1.191 1.387 23.445 23.445 0 0 1-12.094 3.351ZM209.009 505.799l-57.338-.007-.178-.38a4.732 4.732 0 0 1 .9-4.058 4.845 4.845 0 0 1 3.823-1.849h48.557a4.854 4.854 0 0 1 3.824 1.849 4.703 4.703 0 0 1 .911 4.007l-.091.387-.408.051Z"/><path fill="#E4E4E4" d="M47.899 145.411a4.983 4.983 0 0 1-3.286-1.233L1.674 106.697a4.999 4.999 0 0 1 2.962-8.72 5 5 0 0 1 3.614 1.187l42.939 37.481a4.999 4.999 0 0 1-3.29 8.767v-.001ZM305.977 145.411a4.997 4.997 0 0 1-4.85-6.223 4.998 4.998 0 0 1 1.56-2.544l42.938-37.484a5 5 0 0 1 6.576 7.533l-42.939 37.481a4.983 4.983 0 0 1-3.285 1.237Z"/><path fill="#F1426C" d="M223.247 472.26h-85.5a5.004 5.004 0 0 1-3.536-1.464 5.004 5.004 0 0 1 0-7.072 5.004 5.004 0 0 1 3.536-1.464h85.5a5 5 0 0 1 0 10Z"/><path fill="#E6E6E6" d="m178.398 341.639-17.78 106.87h-10.15l18.06-108.51a5.003 5.003 0 0 1 9.87 1.64ZM212.568 448.509h-10.15l-17.78-106.87a4.998 4.998 0 0 1 .866-3.729 5 5 0 0 1 6.979-1.16 5.007 5.007 0 0 1 2.025 3.249l18.06 108.51Z"/><path fill="#E6E6E6" d="M148.003 338.069a4.998 4.998 0 0 1 5-5h54.992a5 5 0 1 1 0 10h-54.992a4.998 4.998 0 0 1-5-5Z"/><path fill="#E4E4E4" d="M180.499 95.5a5.002 5.002 0 0 1-5-5V5a5.002 5.002 0 0 1 5-5 5.002 5.002 0 0 1 5 5v85.5a5.002 5.002 0 0 1-5 5Z"/><path fill="#FEB8B8" d="M589.219 762.149h-12.258l-5.832-47.288h18.092l-.002 47.288Z"/><path fill="#2F2E41" d="M592.346 774.033h-39.531v-.5a15.386 15.386 0 0 1 15.385-15.386h24.146v15.886Z"/><path fill="#FEB8B8" d="m496.082 761.745-11.844-3.167 6.58-47.19 17.48 4.674-12.216 45.683Z"/><path fill="#2F2E41" d="m496.033 774.033-38.189-10.212.129-.483a15.39 15.39 0 0 1 18.839-10.89l23.325 6.237-4.104 15.348ZM596.272 497.137l10.269 11.931-13.28 242.442h-28.369l-14.3-186.551-44.349 191.554-29.492-7.233 26.816-243.3 92.705-8.843Z"/><path fill="#E6E6E6" d="m510.423 340.612 28.246-14.172 43.437.764 37.38 19.127-21.268 106.218 9.187 55.38a226.54 226.54 0 0 1-108.335.892l-.284-.068s21.114-74.916 12.126-97.779l-.489-70.362Z"/><path fill="#FEB8B8" d="M592.139 284.004a31.99 31.99 0 0 0-9.434-22.567 31.992 31.992 0 0 0-54.554 22.686 31.996 31.996 0 0 0 31.935 31.993 31.987 31.987 0 0 0 22.619-9.308 31.99 31.99 0 0 0 9.434-22.567v-.237ZM506.525 418.053a11.465 11.465 0 0 0 11.95 7.233 11.452 11.452 0 0 0 4.7-1.606l57.353 30.318 1.857-13.971-55.73-32.863a11.524 11.524 0 0 0-20.131 10.889h.001Z"/><path fill="#FEB8B8" d="M582.954 420.468a11.467 11.467 0 0 1-8.308 5.004 11.452 11.452 0 0 1-9.17-3.156l-62.6 17.035.545-17.738 62.271-16.173a11.521 11.521 0 0 1 15.307-.153 11.524 11.524 0 0 1 1.954 15.183l.001-.002Z"/><path fill="#E6E6E6" d="m607.28 347.1 12.205-.765s14.29 18.855 6.364 39.316c0 0 1.373 73.5-30.276 70.48-31.649-3.02-41.65-3.019-41.65-3.019l9.5-26.5 21.253-6.562s-6.55-28.894 5.849-40.916L607.28 347.1ZM519.148 346.455l-1.725-8.843s-25.44-.6-30.47 37.951c0 0-22.877 57.692-.454 65.121 22.423 7.429 47.089 0 47.089 0l-1.857-25.444-24.67-5.033s12.745-16.489 5.805-30.792l6.282-32.96Z"/><path fill="#2F2E41" d="M571.222 299.715c-2.352-.924-4.958-.876-7.445-1.331-8.894-1.639-15.753-10.707-14.908-19.71.212-1.167.232-2.36.058-3.533-.617-2.569-3.472-3.948-6.095-4.256-2.623-.307-5.334.086-7.885-.597-3.94-1.055-6.883-4.648-7.881-8.603a19.49 19.49 0 0 1 1.267-11.963l1.224 2.552a9.91 9.91 0 0 0 2.506-4.852 6.248 6.248 0 0 1 5.167 3.272c1.581.706 1.388-2.906 2.964-3.621a2.96 2.96 0 0 1 2.1.273c3.473 1.166 7.156-.583 10.597-1.835a40.414 40.414 0 0 1 18.642-2.131c4.183.511 8.405 1.747 11.66 4.42a26.61 26.61 0 0 1 6.156 8.274c4.017 7.508 7.043 15.792 6.961 24.309a35.3 35.3 0 0 1-6.165 19.52c-2.052 2.986-8.679 13.343-13.084 12.203-5.534-1.43.786-9.793-5.839-12.391Z"/></g><defs><clipPath id="a"><path fill="#fff" d="M0 0h629v775H0z"/></clipPath></defs></svg>