<svg xmlns="http://www.w3.org/2000/svg" width="519" height="535" fill="none"><g clip-path="url(#a)"><path fill="#FFB6B6" d="M101.22 295.989c2.93-3.93 4.87-8.5 5.67-13.33l32.6-39.48-19.24-14.96-31 41.66a30.608 30.608 0 0 0-10.9 9.54c-7.19 9.92-7.91 21.68-1.59 26.25 6.31 4.58 17.26.24 24.45-9.68h.01Z"/><path fill="#F1426C" d="m233.26 139.299-40.78-27.25-82.76 125.92 21.55 23.13 101.99-121.8Z"/><path fill="#FFB6B6" d="m163.66 104.049-4.55-31.35 40.18-10.22 5.34 27.74-40.97 13.83ZM42.47 439.909l4.77 44.5 32.84-10.07-5.3-35.49-32.31 1.06Z"/><path fill="#2F2E41" d="M158.48 246.549s-107.54 20.66-120.25 51.92c-12.71 31.26 2.12 148.33 2.12 148.33l36.55 3.71 15.36-134.56s93.24-1.59 100.12-12.71c6.88-11.12 5.83-51.39 5.83-51.39l-39.73-5.3ZM42.9 462.519l-21.3 21.16s-36.35 29.86-13.04 28.27c23.31-1.59 83.7-15.89 83.17-27.02-.53-11.13-10.07-33.37-10.07-33.37l-38.77 10.95h.01v.01Z"/><path fill="#FFB6B6" d="m166.97 452.729 24.02 37.76 24.97-23.59-20.5-29.46-28.49 15.29Z"/><path fill="#2F2E41" d="M185.13 227.969s-87.2 66.24-84.73 99.89c2.48 33.65 67.72 131.98 67.72 131.98l34.4-12.9-45.94-127.4s82.85-42.8 84.08-55.82c1.23-13.02-17.58-48.63-17.58-48.63l-37.96 12.88h.01ZM178.1 470.289l-12.13 32.27s-17.59 41.55 2.59 29.78c20.18-11.77 67.95-51.38 62.54-61.12-5.41-9.74-23.83-25.44-23.83-25.44l-29.17 24.51Z"/><path fill="#FFB6B6" d="M177.74 82.52c18.06 0 32.7-14.64 32.7-32.7 0-18.06-14.64-32.7-32.7-32.7-18.06 0-32.7 14.64-32.7 32.7 0 18.06 14.64 32.7 32.7 32.7Z"/><path fill="#F1426C" d="m201.92 74.92-40.79 30.199-6.36 131.38-15.36 14.83 52.97 51.92s58.27-18.01 52.44-45.56l-5.83-27.55 2.1-30.74c3.08-44.95-10.92-89.4-39.19-124.47h.02v-.01Z"/><path fill="#2F2E41" d="m201.26 75.6-19.9-.66s5.16-31.18-7.14-31.01l-11.12-5.29s-27.81-18.74-15.06-26.6C160.8 4.19 169.7-2.87 176.99 1.18c7.3 4.05 22.08 5.63 22.08 5.63s26.22 11.04 25.44 20.27c-.78 9.23-6.74 49.66-23.26 48.51h.01v.01Z"/><path fill="#FFB6B6" d="M114.46 298.099c2.73-4.07 4.45-8.73 5.01-13.59l30.62-41.03-19.95-14-28.91 43.13c-4.23 2.47-7.8 5.93-10.42 10.06-6.7 10.27-6.83 22.04-.3 26.3 6.53 4.26 17.25-.61 23.95-10.87Z"/><path fill="#F1426C" d="m238.62 135.099-42.06-25.21-76.47 129.85 22.66 22.03 95.87-126.67Z"/><path fill="#FFB6B6" d="m452.48 329.069 8.98 86-34.24 2.75-1.96-83.47 27.22-5.28Z"/><path fill="#2F2E41" d="m461.87 396.099 27.6 11.82s44.8 14.35 22.55 21.47c-22.25 7.12-83.66 16.1-87.27 5.56-3.61-10.54-2.95-34.73-2.95-34.73l40.07-4.11v-.01ZM314.4 219.169l14.23 6.82s104.58-5.87 111.68 13.53c7.1 19.41 20.83 135.37 20.83 135.37l-36.92 2.37-16.09-78.57-93.72-79.52h-.01Z"/><path fill="#FFB6B6" d="M413.45 242.629a30.685 30.685 0 0 0-12.47-7.38l-34.84-37.51-17.37 17.1 37.21 36.21c1.67 4.6 4.42 8.74 8.02 12.06 8.89 8.44 20.45 10.69 25.82 5.04 5.37-5.65 2.52-17.08-6.37-25.51v-.01Z"/><path fill="#F1426C" d="m275.52 91.12-32.39 36.829 113.94 98.62 25.76-18.31-107.31-117.14Z"/><path fill="#FFB6B6" d="m400.38 327.309-55.14 66.6-25.94-22.52 58.25-59.83 22.83 15.75Z"/><path fill="#2F2E41" d="m358.08 375.659 10.88 27.98s21.11 42.04.45 31.13-70.05-48.48-65.06-58.44c4.99-9.96 22.74-26.42 22.74-26.42l30.99 25.74v.01ZM251.93 246.149s-20.83 49.22 13.25 49.22 114.07-2.84 114.07-2.84l-23.67 41.65 27.93 14.2s58.69-55.38 54.9-80.46c-3.79-25.08-109.78-41.93-109.78-41.93l-21.41 5.63-55.29 14.53ZM249.11 11.12s36.74 1.95 40.03 16.05c3.29 14.09-4.24 28.48 7.58 28.33 11.82-.15 15.95 5.11 15.95 5.11s-12.06 34.15-31 36.11c-18.94 1.96-32.56-85.6-32.56-85.6Z"/><path fill="#FFB6B6" d="m273.75 105.299 1.14-31.66-41.05-5.82-2.32 28.15 42.23 9.33Z"/><path fill="#FFB6B6" d="M284.9 42.53c5.73 17.12-3.51 35.65-20.63 41.38-17.12 5.73-35.65-3.51-41.38-20.63-5.73-17.12 3.51-35.65 20.63-41.38 17.12-5.73 35.65 3.51 41.38 20.63Z"/><path fill="#F1426C" d="m279.31 92.9-37.58-7.83-7 62.779c-1.79 6.96 1.67 33.4 3.51 40.34l11.32 76.15 79.07-38.36-18.01-44.62 3.91-32.1-35.23-56.36h.01Z"/><path fill="#FFB6B6" d="M297.17 177.099c-4.8 1-9.28 3.13-13.09 6.22l-50.58 7.94 4.48 23.96 50.82-10.64a30.82 30.82 0 0 0 14.48.09c11.97-2.66 20.29-10.99 18.6-18.6-1.69-7.61-12.76-11.63-24.72-8.97h.01Z"/><path fill="#F1426C" d="m267.28 132.499-33.93-29.03-50.06 87.79c-1.48 20.46 17.19 36.56 37.21 32.07l44.9-10.95-8.57-36.13-25.24-.93 35.71-42.83h-.02v.01Z"/><path fill="#2F2E41" d="M228.74 17.46s-40.24 11.09-31.11 27.03c9.13 15.94 19.85 20.42 18.52 29.42-1.33 9 9.26 43.909 25.37 38.519 16.11-5.39 40.16-15.71 40.16-15.71s-33.96-28.53-27.98-33.37c5.98-4.84-12.89-39-12.89-39s19.15-9.26 29.3-6.48c10.15 2.78 15.81 1.84 15.81 1.84s-27.65-25.89-39.94-15.6c-12.29 10.29-17.23 13.36-17.23 13.36l-.01-.01Z"/></g><defs><clipPath id="a"><path fill="#fff" d="M0 0h519v535H0z"/></clipPath></defs></svg>