<svg width="1900" height="500" viewBox="0 0 1900 500" fill="none" xmlns="http://www.w3.org/2000/svg">
<path d="M47.2276 110C46.2013 109.49 45.6882 108.981 46.2013 108.471C47.7406 104.903 51.8454 104.903 56.4634 104.903C60.0551 104.903 63.6469 104.903 64.16 102.864C64.6731 100.826 62.1076 98.2771 59.542 96.2383C56.4634 93.1802 52.8717 90.122 54.411 86.5542C55.9503 82.9864 60.0551 82.9864 64.6731 82.9864C68.2648 82.9864 71.8566 82.9864 72.3697 80.9476C72.8828 78.9088 70.3173 76.3604 67.7518 74.3217C64.6731 71.2635 61.0814 68.2054 62.6207 64.6375C64.16 61.0697 68.2649 61.0697 72.8828 61.0697C76.4745 61.0697 80.0663 61.0697 80.5794 59.0309C81.0925 56.9922 78.5269 54.4437 75.9614 52.4049C72.8828 49.3468 69.291 46.2886 70.8303 42.7208C70.8303 42.2111 71.8566 41.7014 72.3697 42.2111C72.8828 42.2111 73.3959 43.2305 72.8828 43.7402C72.3697 45.779 74.9352 48.3274 77.5007 50.3662C80.5793 53.4243 84.1711 56.4825 82.6318 60.0503C81.0924 63.6181 76.9876 63.6181 72.3697 63.6181C68.7779 63.6181 65.1862 63.6181 64.6731 65.6569C64.16 67.6956 66.7255 70.2441 69.291 72.2829C72.3696 75.341 75.9614 78.3992 74.4221 81.967C72.8827 85.5348 68.7779 85.5348 64.16 85.5348C60.5682 85.5348 56.9765 85.5348 56.4634 87.5736C55.9503 89.6124 58.5158 92.1608 61.0814 94.1996C64.16 97.2577 67.7517 100.316 66.2124 103.884C64.6731 107.452 60.5683 107.452 55.9503 107.452C52.3586 107.452 48.7669 107.452 48.2537 109.49C48.2537 109.49 47.7407 110 47.2276 110Z" fill="#646971"/>
<line x1="649.461" y1="137.541" x2="635.442" y2="100.531" stroke="#646971" stroke-width="3"/>
<line x1="641.09" y1="144.747" x2="617.198" y2="129.638" stroke="#646971" stroke-width="3"/>
<line x1="665.931" y1="132.273" x2="664.609" y2="104.036" stroke="#646971" stroke-width="3"/>
<path d="M285.195 446C272.442 447.417 267.148 467.056 271.497 477.202C276.179 488.128 295.035 484.535 303.004 480.551C329.981 467.062 286.142 448.639 282.456 459.699" stroke="#646971" stroke-width="3" stroke-linecap="round"/>
<path d="M1096.51 377.76C1087.71 376.76 1064.31 377.198 1072.95 390.937C1075.23 394.568 1086.2 397.654 1090.29 396.049C1094.09 394.557 1092.68 386.962 1090.13 385.308" stroke="#646971" stroke-width="3" stroke-linecap="round"/>
<path d="M1692.8 414.37C1692.49 422.879 1688.02 433.945 1685.26 442.224C1682.33 451.038 1704.76 440.845 1709.24 440.397C1723.06 439.015 1713.13 435.161 1709.77 430.504C1706.5 425.97 1700.53 415.498 1695.54 413" stroke="#646971" stroke-width="3" stroke-linecap="round"/>
<path d="M1370 9C1370 16.2639 1373.73 17.8399 1376.85 23.3075C1379.05 27.1529 1393.73 32.1927 1394.58 25.3623C1394.89 22.8633 1395.24 18.8235 1393.97 16.5342C1392.17 13.2898 1393.29 23.0189 1393.29 25.1339C1393.29 34.5056 1402.72 34.6896 1410.03 31.9833C1413.75 30.606 1420.68 24.5332 1420.68 20.6438C1420.68 17.4171 1416.59 18.2244 1415.21 20.2633C1413.69 22.4886 1413.32 26.2161 1413.91 28.863C1415.32 35.1903 1422.05 36.1735 1427.53 34.723C1434.51 32.8771 1436.45 23.3811 1442.6 21.3288" stroke="#646971" stroke-width="3" stroke-linecap="round"/>
</svg>
