<svg width="1900" height="900" viewBox="0 0 1900 900" fill="none" xmlns="http://www.w3.org/2000/svg">
<path d="M47.2276 110C46.2013 109.49 45.6882 108.981 46.2013 108.471C47.7406 104.903 51.8454 104.903 56.4634 104.903C60.0551 104.903 63.6469 104.903 64.16 102.864C64.6731 100.826 62.1076 98.2771 59.542 96.2383C56.4634 93.1802 52.8717 90.122 54.411 86.5542C55.9503 82.9864 60.0551 82.9864 64.6731 82.9864C68.2648 82.9864 71.8566 82.9864 72.3697 80.9476C72.8828 78.9088 70.3173 76.3604 67.7518 74.3217C64.6731 71.2635 61.0814 68.2054 62.6207 64.6375C64.16 61.0697 68.2649 61.0697 72.8828 61.0697C76.4745 61.0697 80.0663 61.0697 80.5794 59.0309C81.0925 56.9922 78.5269 54.4437 75.9614 52.4049C72.8828 49.3468 69.291 46.2886 70.8303 42.7208C70.8303 42.2111 71.8566 41.7014 72.3697 42.2111C72.8828 42.2111 73.3959 43.2305 72.8828 43.7402C72.3697 45.779 74.9352 48.3274 77.5007 50.3662C80.5793 53.4243 84.1711 56.4825 82.6318 60.0503C81.0924 63.6181 76.9876 63.6181 72.3697 63.6181C68.7779 63.6181 65.1862 63.6181 64.6731 65.6569C64.16 67.6956 66.7255 70.2441 69.291 72.2829C72.3696 75.341 75.9614 78.3992 74.4221 81.967C72.8827 85.5348 68.7779 85.5348 64.16 85.5348C60.5682 85.5348 56.9765 85.5348 56.4634 87.5736C55.9503 89.6124 58.5158 92.1608 61.0814 94.1996C64.16 97.2577 67.7517 100.316 66.2124 103.884C64.6731 107.452 60.5683 107.452 55.9503 107.452C52.3586 107.452 48.7669 107.452 48.2537 109.49C48.2537 109.49 47.7407 110 47.2276 110Z" fill="#646971"/>
<line x1="649.461" y1="137.541" x2="635.442" y2="100.531" stroke="#646971" stroke-width="3"/>
<line x1="641.09" y1="144.747" x2="617.198" y2="129.638" stroke="#646971" stroke-width="3"/>
<line x1="665.931" y1="132.273" x2="664.609" y2="104.036" stroke="#646971" stroke-width="3"/>
<path d="M240.195 789C227.442 790.417 222.148 810.056 226.497 820.202C231.179 831.128 250.035 827.535 258.004 823.551C284.981 810.062 241.142 791.639 237.456 802.699" stroke="#646971" stroke-width="3" stroke-linecap="round"/>
<path d="M1496.51 474.76C1487.71 473.76 1464.31 474.198 1472.95 487.937C1475.23 491.568 1486.2 494.654 1490.29 493.049C1494.09 491.557 1492.68 483.962 1490.13 482.308" stroke="#646971" stroke-width="3" stroke-linecap="round"/>
<path d="M1856.8 846.37C1856.49 854.879 1852.02 865.945 1849.26 874.224C1846.33 883.038 1868.76 872.845 1873.24 872.397C1887.06 871.015 1877.13 867.161 1873.77 862.504C1870.5 857.97 1864.53 847.498 1859.54 845" stroke="#646971" stroke-width="3" stroke-linecap="round"/>
<path d="M1678 42C1678 49.2639 1681.73 50.8399 1684.85 56.3075C1687.05 60.1529 1701.73 65.1927 1702.58 58.3623C1702.89 55.8633 1703.24 51.8235 1701.97 49.5342C1700.17 46.2898 1701.29 56.0189 1701.29 58.1339C1701.29 67.5056 1710.72 67.6896 1718.03 64.9833C1721.75 63.606 1728.68 57.5332 1728.68 53.6438C1728.68 50.4171 1724.59 51.2244 1723.21 53.2633C1721.69 55.4886 1721.32 59.2161 1721.91 61.863C1723.32 68.1903 1730.05 69.1735 1735.53 67.723C1742.51 65.8771 1744.45 56.3811 1750.6 54.3288" stroke="#646971" stroke-width="3" stroke-linecap="round"/>
</svg>
