<svg width="101" height="27" viewBox="0 0 101 27" fill="none" xmlns="http://www.w3.org/2000/svg">
<g clip-path="url(#clip0_83_2)">
<path d="M-1.22578 27V6.4H25.4542C27.8009 6.4 29.5209 6.98667 30.6142 8.16C31.7076 9.30667 32.2542 10.8267 32.2542 12.72V27H26.4542V13.44C26.4542 11.8133 25.6276 11 23.9742 11H18.4142V27H12.6142V11H4.57422V27H-1.22578Z" fill="#F1426C"/>
<path d="M41.9495 27C39.7895 27 38.1362 26.4533 36.9895 25.36C35.8429 24.2667 35.2695 22.7067 35.2695 20.68C35.2695 18.68 35.8429 17.1333 36.9895 16.04C38.1362 14.9467 39.7895 14.4 41.9495 14.4H57.3095V13.44C57.3095 11.8133 56.5095 11 54.9095 11H37.9495V6.4H56.4295C58.8562 6.4 60.5762 6.96 61.5895 8.08C62.6029 9.17333 63.1095 10.72 63.1095 12.72V27H41.9495ZM42.9895 22.4H57.3095V19H42.9895C42.4829 19 42.0829 19.16 41.7895 19.48C41.5229 19.7733 41.3895 20.1733 41.3895 20.68C41.3895 21.1867 41.5229 21.6 41.7895 21.92C42.0829 22.24 42.4829 22.4 42.9895 22.4ZM67.5242 27V-1.6H73.3242V6.4H85.4842C87.8309 6.4 89.5376 6.98667 90.6042 8.16C91.6976 9.30667 92.2442 10.8267 92.2442 12.72V27H86.4442V13.4C86.4442 11.8 85.6442 11 84.0442 11H73.3242V27H67.5242ZM96.4305 27V6.4H102.23V27H96.4305ZM96.3905 3V-1.52H102.27V3H96.3905Z" fill="white"/>
</g>
<defs>
<clipPath id="clip0_83_2">
<rect width="101" height="27" fill="white"/>
</clipPath>
</defs>
</svg>
